<?xml version="1.0" standalone="no"?>
<!DOCTYPE svg PUBLIC "-//W3C//DTD SVG 20010904//EN"
 "http://www.w3.org/TR/2001/REC-SVG-20010904/DTD/svg10.dtd">
<svg version="1.0" xmlns="http://www.w3.org/2000/svg"
 width="300.000000pt" height="164.000000pt" viewBox="0 0 300.000000 164.000000"
 preserveAspectRatio="xMidYMid meet">

<g transform="translate(0.000000,164.000000) scale(0.100000,-0.100000)"
fill="#000000" stroke="none">
<path d="M889 1233 c-13 -16 -12 -17 4 -4 9 7 17 15 17 17 0 8 -8 3 -21 -13z"/>
<path d="M2502 1220 c0 -19 2 -27 5 -17 2 9 2 25 0 35 -3 9 -5 1 -5 -18z"/>
<path d="M2040 1226 c0 -2 8 -10 18 -17 15 -13 16 -12 3 4 -13 16 -21 21 -21
13z"/>
<path d="M1268 1213 c18 -2 45 -2 60 0 15 2 0 4 -33 4 -33 0 -45 -2 -27 -4z"/>
<path d="M671 1194 c0 -11 3 -14 6 -6 3 7 2 16 -1 19 -3 4 -6 -2 -5 -13z"/>
<path d="M1232 1113 c-1 -50 1 -94 6 -96 4 -3 6 25 4 61 -5 116 -9 130 -10 35z"/>
<path d="M2232 1135 c0 -16 2 -22 5 -12 2 9 2 23 0 30 -3 6 -5 -1 -5 -18z"/>
<path d="M1502 1120 c0 -14 2 -19 5 -12 2 6 2 18 0 25 -3 6 -5 1 -5 -13z"/>
<path d="M1641 1054 c0 -11 3 -14 6 -6 3 7 2 16 -1 19 -3 4 -6 -2 -5 -13z"/>
<path d="M2051 1044 c0 -11 3 -14 6 -6 3 7 2 16 -1 19 -3 4 -6 -2 -5 -13z"/>
<path d="M718 1043 c6 -2 18 -2 25 0 6 3 1 5 -13 5 -14 0 -19 -2 -12 -5z"/>
<path d="M1711 1034 c0 -11 3 -14 6 -6 3 7 2 16 -1 19 -3 4 -6 -2 -5 -13z"/>
<path d="M2480 996 c0 -2 8 -10 18 -17 15 -13 16 -12 3 4 -13 16 -21 21 -21
13z"/>
<path d="M1711 964 c0 -11 3 -14 6 -6 3 7 2 16 -1 19 -3 4 -6 -2 -5 -13z"/>
<path d="M2051 954 c0 -11 3 -14 6 -6 3 7 2 16 -1 19 -3 4 -6 -2 -5 -13z"/>
<path d="M1234 845 c0 -66 1 -92 3 -57 2 34 2 88 0 120 -2 31 -3 3 -3 -63z"/>
<path d="M1641 944 c0 -11 3 -14 6 -6 3 7 2 16 -1 19 -3 4 -6 -2 -5 -13z"/>
<path d="M2532 875 c0 -16 2 -22 5 -12 2 9 2 23 0 30 -3 6 -5 -1 -5 -18z"/>
<path d="M2462 870 c0 -14 2 -19 5 -12 2 6 2 18 0 25 -3 6 -5 1 -5 -13z"/>
<path d="M889 823 c-13 -16 -12 -17 4 -4 9 7 17 15 17 17 0 8 -8 3 -21 -13z"/>
<path d="M671 784 c0 -11 3 -14 6 -6 3 7 2 16 -1 19 -3 4 -6 -2 -5 -13z"/>
<path d="M1715 780 c10 -11 20 -20 23 -20 3 0 -3 9 -13 20 -10 11 -20 20 -23
20 -3 0 3 -9 13 -20z"/>
<path d="M2049 783 c-13 -16 -12 -17 4 -4 9 7 17 15 17 17 0 8 -8 3 -21 -13z"/>
<path d="M350 585 c0 -13 134 -15 1145 -15 1011 0 1145 2 1145 15 0 13 -134
15 -1145 15 -1011 0 -1145 -2 -1145 -15z"/>
<path d="M470 470 c0 -33 4 -60 10 -60 6 0 10 11 10 25 0 33 25 33 46 0 9 -14
19 -23 22 -21 2 3 -3 17 -12 31 -9 14 -12 25 -6 25 14 0 13 33 -2 48 -7 7 -25
12 -40 12 -28 0 -28 -1 -28 -60z m58 22 c3 -17 -2 -22 -17 -22 -16 0 -21 6
-21 26 0 33 33 30 38 -4z"/>
<path d="M680 471 c0 -56 1 -59 28 -64 34 -7 52 8 52 43 0 32 -23 55 -45 46
-10 -4 -15 1 -15 14 0 11 -4 20 -10 20 -6 0 -10 -26 -10 -59z m68 -9 c4 -28
-14 -53 -34 -45 -14 5 -20 54 -7 67 14 13 38 0 41 -22z"/>
<path d="M1027 512 c-23 -25 -21 -68 3 -92 24 -24 38 -25 68 -4 15 10 22 25
22 48 0 57 -58 87 -93 48z m68 -16 c24 -35 5 -78 -33 -74 -23 2 -28 8 -30 36
-6 58 34 82 63 38z"/>
<path d="M1922 518 c-21 -21 -13 -39 24 -54 43 -18 40 -37 -7 -44 -31 -5 -32
-7 -11 -14 34 -12 62 2 62 30 0 19 -8 29 -36 40 -30 13 -34 17 -23 30 8 10 21
13 37 9 15 -4 21 -2 17 5 -8 14 -48 13 -63 -2z"/>
<path d="M898 508 c-9 -24 4 -97 18 -102 7 -3 16 -1 19 4 4 6 -1 10 -9 10 -24
0 -22 70 2 71 13 0 14 2 2 6 -8 3 -18 10 -21 15 -3 5 -8 4 -11 -4z"/>
<path d="M1528 509 c-9 -27 5 -90 22 -99 13 -7 21 -7 25 0 3 5 -1 10 -9 10
-24 0 -22 67 2 73 16 4 16 5 0 6 -10 0 -18 6 -18 11 0 13 -17 13 -22 -1z"/>
<path d="M2209 512 c-2 -7 -3 -32 -1 -56 3 -33 9 -45 23 -49 10 -3 19 -1 19 4
0 5 -7 9 -15 9 -22 0 -20 56 3 69 15 9 15 10 0 11 -9 0 -18 6 -20 13 -4 9 -6
9 -9 -1z"/>
<path d="M592 488 c-17 -17 -15 -63 3 -78 20 -17 54 -3 61 25 12 47 -33 84
-64 53z m46 -32 c4 -32 -15 -51 -35 -34 -14 11 -18 50 -6 62 15 15 38 -1 41
-28z"/>
<path d="M802 488 c-17 -17 -15 -63 3 -78 20 -17 54 -3 61 25 12 47 -33 84
-64 53z m46 -37 c3 -29 1 -32 -20 -29 -26 3 -35 32 -17 54 18 22 34 12 37 -25z"/>
<path d="M1151 430 c1 -36 4 -55 6 -42 3 17 9 21 23 17 21 -7 50 19 50 43 0
30 -18 47 -50 47 l-30 1 1 -66z m57 44 c15 -27 3 -56 -22 -52 -24 4 -33 33
-16 53 16 19 27 19 38 -1z"/>
<path d="M1262 488 c-17 -17 -15 -54 4 -72 18 -18 50 -21 60 -5 3 6 -1 10 -12
9 -34 -4 -44 0 -44 15 0 10 10 15 30 15 18 0 30 5 30 13 0 18 -21 37 -40 37
-9 0 -21 -5 -28 -12z m48 -13 c11 -13 8 -15 -14 -15 -25 0 -33 10 -19 23 10
11 19 8 33 -8z"/>
<path d="M1362 450 c1 -36 2 -39 5 -13 2 18 13 39 24 47 20 14 20 14 -5 12
-24 -1 -26 -4 -24 -46z"/>
<path d="M1436 492 c-3 -5 4 -8 16 -8 12 1 23 -5 25 -11 3 -8 -5 -13 -20 -13
-30 0 -44 -28 -24 -47 9 -9 23 -12 40 -7 22 5 27 12 27 38 0 18 -5 37 -12 44
-14 14 -44 16 -52 4z m54 -46 c0 -11 -33 -36 -41 -31 -19 12 -9 35 16 35 14 0
25 -2 25 -4z"/>
<path d="M1603 455 c0 -27 2 -38 4 -22 2 15 2 37 0 50 -2 12 -4 0 -4 -28z"/>
<path d="M1649 496 c-5 -8 -2 -86 4 -86 4 0 7 16 7 35 0 19 5 36 10 37 31 4
35 0 41 -37 l7 -40 -2 45 c-1 44 -2 45 -33 46 -18 1 -33 1 -34 0z"/>
<path d="M1761 486 c-7 -8 -11 -27 -9 -43 2 -22 9 -29 31 -31 33 -4 31 -27 -2
-26 -11 0 -21 -3 -21 -8 0 -4 11 -8 25 -8 30 0 45 26 45 78 0 33 -4 41 -22 46
-32 8 -34 8 -47 -8z m47 -35 c3 -29 1 -32 -20 -29 -26 3 -35 32 -17 54 18 22
34 12 37 -25z"/>
<path d="M2021 485 c0 -11 6 -31 14 -45 18 -32 18 -35 -2 -56 -13 -13 -14 -16
-3 -13 16 5 59 85 59 109 0 8 -8 0 -18 -19 l-18 -34 -16 39 c-10 24 -16 31
-16 19z"/>
<path d="M2127 493 c-16 -15 -6 -41 18 -47 45 -11 30 -30 -20 -27 -19 1 -19 1
-2 -9 24 -15 57 -3 57 20 0 13 -9 22 -25 26 -31 8 -32 22 -2 34 21 8 21 9 1 9
-11 1 -24 -2 -27 -6z"/>
<path d="M2288 489 c-22 -12 -23 -52 -2 -73 18 -18 50 -21 60 -5 3 6 -1 10
-12 9 -34 -4 -44 0 -44 15 0 10 10 15 30 15 31 0 39 17 18 38 -14 14 -27 15
-50 1z m36 -5 c25 -9 19 -24 -9 -24 -24 0 -32 10 -18 23 8 8 8 8 27 1z"/>
<path d="M2382 450 c1 -35 2 -38 5 -13 4 34 26 59 43 48 5 -3 11 -23 12 -43 1
-36 1 -36 5 -5 5 35 29 62 43 47 5 -5 11 -25 13 -44 3 -27 4 -25 3 10 l-1 45
-62 0 -63 0 2 -45z"/>
</g>
</svg>
